<svg width="80" height="80" viewBox="0 0 80 80" fill="none" xmlns="http://www.w3.org/2000/svg">
  <defs>
    <linearGradient id="grad3" x1="0%" y1="0%" x2="100%" y2="100%">
      <stop offset="0%" style="stop-color:#F5A962"/>
      <stop offset="100%" style="stop-color:#E8924A"/>
    </linearGradient>
  </defs>
  <!-- 背景圆 -->
  <circle cx="40" cy="40" r="38" fill="url(#grad3)"/>
  <!-- 妈妈头部 -->
  <circle cx="35" cy="28" r="10" fill="white"/>
  <!-- 妈妈身体 -->
  <path d="M25 38 Q25 55 35 58 Q45 55 45 38" fill="white"/>
  <!-- 宝宝头部 -->
  <circle cx="52" cy="38" r="7" fill="#FFE0B2"/>
  <!-- 宝宝身体 -->
  <path d="M45 45 Q45 58 52 58 Q59 58 59 45" fill="#FFE0B2"/>
  <!-- 爱心 -->
  <path d="M40 20 C40 15 35 12 32 16 C29 12 24 15 24 20 C24 26 32 32 32 32 C32 32 40 26 40 20" fill="#FF6B6B"/>
</svg>