<svg width="80" height="80" viewBox="0 0 80 80" fill="none" xmlns="http://www.w3.org/2000/svg">
  <defs>
    <linearGradient id="grad2" x1="0%" y1="0%" x2="100%" y2="100%">
      <stop offset="0%" style="stop-color:#F5A962"/>
      <stop offset="100%" style="stop-color:#E8924A"/>
    </linearGradient>
  </defs>
  <!-- 背景圆 -->
  <circle cx="40" cy="40" r="38" fill="url(#grad2)"/>
  <!-- 蒸汽 -->
  <path d="M32 18 Q34 14 32 10" stroke="white" stroke-width="2" stroke-linecap="round" fill="none"/>
  <path d="M40 16 Q42 12 40 8" stroke="white" stroke-width="2" stroke-linecap="round" fill="none"/>
  <path d="M48 18 Q50 14 48 10" stroke="white" stroke-width="2" stroke-linecap="round" fill="none"/>
  <!-- 碗 -->
  <ellipse cx="40" cy="45" rx="22" ry="10" fill="white"/>
  <path d="M18 45 Q18 60 40 60 Q62 60 62 45" fill="white"/>
  <!-- 碗边 -->
  <ellipse cx="40" cy="45" rx="18" ry="7" fill="#FFF3E8"/>
  <!-- 勺子 -->
  <ellipse cx="55" cy="38" rx="6" ry="4" fill="#FFE0B2" transform="rotate(-30 55 38)"/>
  <rect x="58" y="32" width="3" height="15" rx="1.5" fill="#FFE0B2" transform="rotate(-30 58 32)"/>
</svg>